<mxfile host="app.diagrams.net" modified="2021-08-25T01:49:41.648Z" agent="5.0 (Windows NT 10.0; Win64; x64) AppleWebKit/537.36 (KHTML, like Gecko) Chrome/91.0.4472.101 Safari/537.36" etag="6f_0p3tTPh2ADWcar14a" version="14.9.8" type="github">
  <diagram id="tlhubyshoTWTo2FEPiH6" name="Page-1">
    <mxGraphModel dx="1422" dy="762" grid="1" gridSize="10" guides="1" tooltips="1" connect="1" arrows="1" fold="1" page="1" pageScale="1" pageWidth="827" pageHeight="1169" math="0" shadow="0">
      <root>
        <mxCell id="0" />
        <mxCell id="1" parent="0" />
        <mxCell id="rPxhv4h-wJoZCAOaGcnc-1" value="&lt;font style=&quot;font-size: 16px&quot; color=&quot;#ff0000&quot;&gt;1&lt;/font&gt;" style="rounded=1;whiteSpace=wrap;html=1;strokeWidth=2;fillWeight=4;hachureGap=8;hachureAngle=45;fillColor=#1ba1e2;sketch=1;fontColor=#FFFF00;fontStyle=1" vertex="1" parent="1">
          <mxGeometry x="120" y="190" width="40" height="30" as="geometry" />
        </mxCell>
        <mxCell id="rPxhv4h-wJoZCAOaGcnc-2" value="&lt;font style=&quot;font-size: 16px&quot; color=&quot;#ff0000&quot;&gt;3&lt;/font&gt;" style="rounded=1;whiteSpace=wrap;html=1;strokeWidth=2;fillWeight=4;hachureGap=8;hachureAngle=45;fillColor=#1ba1e2;sketch=1;fontColor=#FFFF00;fontStyle=1" vertex="1" parent="1">
          <mxGeometry x="243" y="190" width="40" height="30" as="geometry" />
        </mxCell>
        <mxCell id="rPxhv4h-wJoZCAOaGcnc-3" value="&lt;font style=&quot;font-size: 16px&quot; color=&quot;#ff0000&quot;&gt;6&lt;/font&gt;" style="rounded=1;whiteSpace=wrap;html=1;strokeWidth=2;fillWeight=4;hachureGap=8;hachureAngle=45;fillColor=#1ba1e2;sketch=1;fontColor=#FFFF00;fontStyle=1" vertex="1" parent="1">
          <mxGeometry x="367" y="190" width="40" height="30" as="geometry" />
        </mxCell>
        <mxCell id="rPxhv4h-wJoZCAOaGcnc-4" value="&lt;font style=&quot;font-size: 16px&quot; color=&quot;#ff0000&quot;&gt;10&lt;/font&gt;" style="rounded=1;whiteSpace=wrap;html=1;strokeWidth=2;fillWeight=4;hachureGap=8;hachureAngle=45;fillColor=#1ba1e2;sketch=1;fontColor=#FFFF00;fontStyle=1" vertex="1" parent="1">
          <mxGeometry x="490" y="190" width="40" height="30" as="geometry" />
        </mxCell>
        <mxCell id="rPxhv4h-wJoZCAOaGcnc-5" value="&lt;font style=&quot;font-size: 16px&quot; color=&quot;#ff0000&quot;&gt;2&lt;/font&gt;" style="rounded=1;whiteSpace=wrap;html=1;strokeWidth=2;fillWeight=4;hachureGap=8;hachureAngle=45;fillColor=#1ba1e2;sketch=1;fontColor=#FFFF00;fontStyle=1" vertex="1" parent="1">
          <mxGeometry x="120" y="280" width="40" height="30" as="geometry" />
        </mxCell>
        <mxCell id="rPxhv4h-wJoZCAOaGcnc-6" value="&lt;font style=&quot;font-size: 16px&quot; color=&quot;#ff0000&quot;&gt;4&lt;/font&gt;" style="rounded=1;whiteSpace=wrap;html=1;strokeWidth=2;fillWeight=4;hachureGap=8;hachureAngle=45;fillColor=#1ba1e2;sketch=1;fontColor=#FFFF00;fontStyle=1" vertex="1" parent="1">
          <mxGeometry x="120" y="380" width="40" height="30" as="geometry" />
        </mxCell>
        <mxCell id="rPxhv4h-wJoZCAOaGcnc-7" value="&lt;font style=&quot;font-size: 16px&quot; color=&quot;#ff0000&quot;&gt;7&lt;/font&gt;" style="rounded=1;whiteSpace=wrap;html=1;strokeWidth=2;fillWeight=4;hachureGap=8;hachureAngle=45;fillColor=#1ba1e2;sketch=1;fontColor=#FFFF00;fontStyle=1" vertex="1" parent="1">
          <mxGeometry x="120" y="470" width="40" height="30" as="geometry" />
        </mxCell>
        <mxCell id="rPxhv4h-wJoZCAOaGcnc-8" value="&lt;font style=&quot;font-size: 16px&quot; color=&quot;#ff0000&quot;&gt;5&lt;/font&gt;" style="rounded=1;whiteSpace=wrap;html=1;strokeWidth=2;fillWeight=4;hachureGap=8;hachureAngle=45;fillColor=#1ba1e2;sketch=1;fontColor=#FFFF00;fontStyle=1" vertex="1" parent="1">
          <mxGeometry x="243.5" y="280" width="40" height="30" as="geometry" />
        </mxCell>
        <mxCell id="rPxhv4h-wJoZCAOaGcnc-9" value="&lt;font style=&quot;font-size: 16px&quot; color=&quot;#ff0000&quot;&gt;9&lt;/font&gt;" style="rounded=1;whiteSpace=wrap;html=1;strokeWidth=2;fillWeight=4;hachureGap=8;hachureAngle=45;fillColor=#1ba1e2;sketch=1;fontColor=#FFFF00;fontStyle=1" vertex="1" parent="1">
          <mxGeometry x="367.5" y="280" width="40" height="30" as="geometry" />
        </mxCell>
        <mxCell id="rPxhv4h-wJoZCAOaGcnc-11" value="&lt;font style=&quot;font-size: 16px&quot; color=&quot;#ff0000&quot;&gt;8&lt;/font&gt;" style="rounded=1;whiteSpace=wrap;html=1;strokeWidth=2;fillWeight=4;hachureGap=8;hachureAngle=45;fillColor=#1ba1e2;sketch=1;fontColor=#FFFF00;fontStyle=1" vertex="1" parent="1">
          <mxGeometry x="243" y="380" width="40" height="30" as="geometry" />
        </mxCell>
        <mxCell id="rPxhv4h-wJoZCAOaGcnc-17" value="&lt;font color=&quot;#0000ff&quot; style=&quot;font-size: 16px&quot;&gt;行&lt;br&gt;起&lt;br&gt;始&lt;br&gt;值&lt;br&gt;和&lt;br&gt;上&lt;br&gt;一&lt;br&gt;行&lt;br&gt;关&lt;br&gt;系&lt;/font&gt;" style="text;html=1;align=center;verticalAlign=middle;resizable=0;points=[];autosize=1;strokeColor=none;fontColor=#FFFF00;fontSize=16;" vertex="1" parent="1">
          <mxGeometry x="25" y="240" width="30" height="200" as="geometry" />
        </mxCell>
        <mxCell id="rPxhv4h-wJoZCAOaGcnc-18" value="+1" style="text;html=1;align=center;verticalAlign=middle;resizable=0;points=[];autosize=1;strokeColor=none;fontSize=16;fontColor=#FF0000;" vertex="1" parent="1">
          <mxGeometry x="55" y="240" width="30" height="20" as="geometry" />
        </mxCell>
        <mxCell id="rPxhv4h-wJoZCAOaGcnc-19" value="+2" style="text;html=1;align=center;verticalAlign=middle;resizable=0;points=[];autosize=1;strokeColor=none;fontSize=16;fontColor=#FF0000;" vertex="1" parent="1">
          <mxGeometry x="55" y="340" width="30" height="20" as="geometry" />
        </mxCell>
        <mxCell id="rPxhv4h-wJoZCAOaGcnc-20" value="+3" style="text;html=1;align=center;verticalAlign=middle;resizable=0;points=[];autosize=1;strokeColor=none;fontSize=16;fontColor=#FF0000;" vertex="1" parent="1">
          <mxGeometry x="55" y="430" width="30" height="20" as="geometry" />
        </mxCell>
        <mxCell id="rPxhv4h-wJoZCAOaGcnc-21" value="2" style="text;html=1;align=center;verticalAlign=middle;resizable=0;points=[];autosize=1;strokeColor=none;fontSize=16;fontColor=#FF00FF;" vertex="1" parent="1">
          <mxGeometry x="195" y="160" width="20" height="20" as="geometry" />
        </mxCell>
        <mxCell id="rPxhv4h-wJoZCAOaGcnc-22" value="3" style="text;html=1;align=center;verticalAlign=middle;resizable=0;points=[];autosize=1;strokeColor=none;fontSize=16;fontColor=#FF00FF;" vertex="1" parent="1">
          <mxGeometry x="320" y="160" width="20" height="20" as="geometry" />
        </mxCell>
        <mxCell id="rPxhv4h-wJoZCAOaGcnc-23" value="4" style="text;html=1;align=center;verticalAlign=middle;resizable=0;points=[];autosize=1;strokeColor=none;fontSize=16;fontColor=#FF00FF;" vertex="1" parent="1">
          <mxGeometry x="450" y="160" width="20" height="20" as="geometry" />
        </mxCell>
        <mxCell id="rPxhv4h-wJoZCAOaGcnc-24" value="&lt;font color=&quot;#0000ff&quot; style=&quot;font-size: 16px&quot;&gt;每列间隙和上一间隙关系&lt;/font&gt;" style="text;html=1;align=center;verticalAlign=middle;resizable=0;points=[];autosize=1;strokeColor=none;fontColor=#FFFF00;fontSize=16;" vertex="1" parent="1">
          <mxGeometry x="5" y="130" width="190" height="20" as="geometry" />
        </mxCell>
        <mxCell id="rPxhv4h-wJoZCAOaGcnc-25" value="+1" style="text;html=1;align=center;verticalAlign=middle;resizable=0;points=[];autosize=1;strokeColor=none;fontSize=16;fontColor=#FF0000;" vertex="1" parent="1">
          <mxGeometry x="253.5" y="130" width="30" height="20" as="geometry" />
        </mxCell>
        <mxCell id="rPxhv4h-wJoZCAOaGcnc-26" value="+1" style="text;html=1;align=center;verticalAlign=middle;resizable=0;points=[];autosize=1;strokeColor=none;fontSize=16;fontColor=#FF0000;" vertex="1" parent="1">
          <mxGeometry x="399" y="130" width="30" height="20" as="geometry" />
        </mxCell>
        <mxCell id="rPxhv4h-wJoZCAOaGcnc-27" value="" style="rounded=0;whiteSpace=wrap;html=1;fontSize=16;strokeColor=#d6b656;fillColor=none;dashed=1;strokeWidth=3;" vertex="1" parent="1">
          <mxGeometry x="10" y="120" width="530" height="40" as="geometry" />
        </mxCell>
        <mxCell id="rPxhv4h-wJoZCAOaGcnc-28" value="" style="rounded=0;whiteSpace=wrap;html=1;fontSize=16;strokeColor=#d6b656;fillColor=none;dashed=1;strokeWidth=3;" vertex="1" parent="1">
          <mxGeometry x="10" y="190" width="95" height="310" as="geometry" />
        </mxCell>
        <mxCell id="rPxhv4h-wJoZCAOaGcnc-30" value="3" style="text;html=1;align=center;verticalAlign=middle;resizable=0;points=[];autosize=1;strokeColor=none;fontSize=16;fontColor=#FF00FF;" vertex="1" parent="1">
          <mxGeometry x="195" y="285" width="20" height="20" as="geometry" />
        </mxCell>
        <mxCell id="rPxhv4h-wJoZCAOaGcnc-31" value="4" style="text;html=1;align=center;verticalAlign=middle;resizable=0;points=[];autosize=1;strokeColor=none;fontSize=16;fontColor=#FF00FF;" vertex="1" parent="1">
          <mxGeometry x="195" y="385" width="20" height="20" as="geometry" />
        </mxCell>
        <mxCell id="rPxhv4h-wJoZCAOaGcnc-32" value="2" style="text;html=1;align=center;verticalAlign=middle;resizable=0;points=[];autosize=1;strokeColor=none;fontSize=16;fontColor=#FF00FF;" vertex="1" parent="1">
          <mxGeometry x="195" y="195" width="20" height="20" as="geometry" />
        </mxCell>
        <mxCell id="rPxhv4h-wJoZCAOaGcnc-33" value="行间隙起始值和列间隙关系相同" style="text;html=1;align=center;verticalAlign=middle;resizable=0;points=[];autosize=1;strokeColor=none;fontSize=16;fontColor=#FF00FF;" vertex="1" parent="1">
          <mxGeometry x="210" y="450" width="240" height="20" as="geometry" />
        </mxCell>
      </root>
    </mxGraphModel>
  </diagram>
</mxfile>
